<?xml version="1.0" standalone="no"?>
<!DOCTYPE svg PUBLIC "-//W3C//DTD SVG 20010904//EN"
 "http://www.w3.org/TR/2001/REC-SVG-20010904/DTD/svg10.dtd">
<svg version="1.0" xmlns="http://www.w3.org/2000/svg"
 width="915.000000pt" height="915.000000pt" viewBox="0 0 915.000000 915.000000"
 preserveAspectRatio="xMidYMid meet">
<metadata>
Created by potrace 1.11, written by Peter Selinger 2001-2013
</metadata>
<g transform="translate(0.000000,915.000000) scale(0.100000,-0.100000)"
fill="#000000" stroke="none">
<path d="M7315 7084 c-45 -17 -84 -39 -110 -64 -43 -42 -76 -54 -139 -52 -87
3 -172 2 -196 -3 -14 -2 -41 -7 -61 -9 -19 -3 -69 -22 -111 -43 -41 -21 -95
-47 -119 -57 -73 -33 -214 -185 -287 -309 -27 -47 -32 -53 -119 -143 -39 -41
-76 -74 -81 -74 -6 0 -29 -16 -53 -36 -60 -50 -106 -71 -203 -94 -110 -25
-223 -17 -322 25 -19 8 -34 12 -34 9 0 -3 -8 0 -18 5 -10 5 -43 12 -73 15 -94
9 -142 16 -151 22 -34 21 -500 38 -543 20 -11 -5 -36 -10 -55 -13 -33 -4 -64
-11 -211 -49 -34 -9 -73 -18 -87 -20 -14 -3 -33 -9 -44 -15 -10 -5 -18 -7 -18
-4 0 3 -14 -2 -31 -10 -17 -9 -33 -14 -37 -11 -3 3 -10 2 -16 -3 -19 -15 -177
-53 -220 -53 -22 0 -86 12 -141 25 -154 39 -238 47 -350 33 -93 -11 -290 -68
-354 -101 -17 -8 -34 -16 -38 -17 -30 -5 -58 -17 -141 -60 -52 -27 -126 -70
-164 -96 -39 -26 -86 -57 -106 -69 -37 -23 -182 -79 -224 -87 -37 -7 -129 -41
-198 -73 -36 -17 -90 -38 -120 -48 -30 -10 -59 -21 -65 -25 -5 -4 -44 -17 -85
-30 -41 -12 -79 -25 -85 -30 -9 -6 -48 -19 -83 -26 -8 -1 -21 -6 -30 -10 -21
-9 -21 -9 -57 -19 -16 -4 -43 -15 -60 -23 -29 -15 -316 -108 -364 -118 -83
-17 -384 -117 -501 -166 -71 -29 -196 -103 -250 -148 -120 -99 -213 -214 -225
-280 0 -3 -6 -21 -13 -40 -25 -75 -20 -218 12 -330 24 -84 116 -228 194 -304
154 -151 371 -279 524 -310 13 -3 55 -14 93 -26 39 -11 84 -22 100 -24 17 -2
57 -12 90 -22 33 -10 63 -19 68 -20 4 -1 9 -3 12 -4 3 -1 8 -3 13 -4 4 -2 26
-8 50 -15 24 -7 53 -11 65 -9 18 2 13 8 -25 26 -26 13 -50 23 -53 23 -3 -1
-18 5 -33 12 -15 8 -82 33 -149 56 -300 103 -423 163 -519 249 -22 20 -56 51
-76 68 -81 71 -163 197 -160 246 2 29 32 90 60 121 22 24 72 55 102 61 14 3
64 14 113 24 55 11 122 18 185 17 147 -3 299 -4 482 -3 91 0 233 -3 315 -8
159 -8 260 -9 390 -4 94 4 151 1 220 -13 61 -12 90 -26 135 -66 19 -18 49 -39
65 -48 17 -8 63 -36 103 -60 41 -24 76 -42 79 -39 3 3 14 1 24 -5 10 -5 60
-11 111 -14 51 -2 104 -6 118 -9 14 -3 38 -8 53 -12 32 -7 138 -52 208 -89 26
-14 58 -31 71 -38 40 -20 118 -93 118 -110 0 -18 -46 -57 -67 -57 -29 0 -235
-111 -293 -157 -66 -54 -197 -126 -250 -139 -19 -4 -37 -8 -40 -9 -3 -1 -30
-5 -60 -9 -30 -5 -70 -14 -89 -22 -18 -8 -41 -14 -51 -14 -9 0 -25 -9 -35 -20
-10 -11 -27 -22 -38 -26 -34 -11 -37 -15 -90 -134 -14 -30 -57 -93 -96 -140
-60 -71 -71 -89 -67 -112 4 -20 -1 -33 -16 -48 -29 -27 -14 -38 22 -16 17 9
30 13 30 8 0 -5 -29 -43 -64 -84 -35 -41 -67 -85 -71 -99 -4 -13 -13 -31 -20
-39 -15 -17 -22 -39 -31 -95 -12 -68 -6 -104 28 -168 19 -34 43 -84 53 -112
24 -64 93 -197 109 -210 19 -15 28 -62 13 -69 -8 -4 -7 -5 3 -4 8 1 22 -1 30
-5 22 -8 91 -19 120 -19 14 0 28 -5 32 -11 5 -7 8 -2 8 12 0 13 3 21 6 18 4
-3 14 -2 24 3 10 5 20 6 24 3 3 -3 23 -7 43 -8 20 -1 39 -7 41 -13 2 -7 9 -9
15 -5 6 4 8 0 5 -9 -4 -8 0 -15 8 -15 7 0 10 5 7 10 -4 6 1 8 11 4 10 -4 15
-3 11 3 -3 6 -13 10 -21 10 -8 0 -14 9 -14 20 0 17 3 18 27 9 14 -5 32 -8 39
-5 7 3 15 0 18 -7 3 -9 5 -9 5 1 1 6 9 12 19 12 10 0 23 5 29 11 12 12 106 14
124 3 5 -3 7 -9 4 -14 -3 -5 -1 -11 5 -15 5 -3 15 6 20 21 18 45 -14 94 -82
126 -31 16 -59 37 -63 47 -6 21 -71 51 -110 51 -13 0 -34 10 -45 22 -17 18
-19 29 -13 58 9 45 7 140 -5 184 -6 19 -6 38 -2 43 4 4 11 31 14 58 3 28 8 66
11 85 3 19 7 49 9 65 10 97 39 177 78 215 51 53 219 114 284 104 10 -2 51 -4
91 -5 90 -2 98 -7 72 -44 -11 -17 -35 -60 -54 -96 -48 -94 -43 -131 34 -265 6
-10 17 -37 25 -59 8 -22 28 -79 45 -126 17 -47 34 -115 37 -150 8 -96 11 -112
22 -140 6 -15 9 -29 7 -31 -2 -2 -6 -15 -9 -30 -2 -14 -11 -39 -20 -56 -8 -16
-12 -33 -8 -37 4 -3 -2 -13 -12 -21 -11 -8 -15 -14 -9 -14 8 0 9 -9 3 -29 -4
-16 -6 -32 -2 -35 3 -3 0 -6 -7 -6 -7 0 -9 -5 -4 -12 4 -7 9 -22 10 -33 2 -10
10 -30 19 -42 8 -13 12 -28 9 -33 -3 -5 0 -7 7 -5 8 3 25 -6 37 -19 13 -14 27
-23 32 -21 4 3 10 1 14 -5 3 -5 15 -10 26 -10 11 0 22 -7 25 -15 10 -24 154
-42 181 -22 7 5 19 7 28 4 8 -4 17 -2 20 4 4 5 3 9 -2 8 -20 -3 -23 3 -12 24
7 12 12 34 11 50 -2 29 7 34 27 14 7 -6 12 -7 11 -2 -5 22 1 25 23 11 12 -7
34 -13 50 -12 16 1 27 -3 27 -11 0 -7 8 -13 18 -13 15 0 15 2 2 10 -26 18 70
0 130 -24 30 -12 70 -21 89 -19 20 2 38 -2 43 -9 5 -8 8 -9 8 -2 0 10 29 15
90 16 14 0 20 3 13 5 -10 3 -10 9 0 24 15 25 59 25 81 0 17 -18 17 -20 -1 -30
-10 -6 -13 -11 -6 -11 6 0 15 5 18 10 5 7 11 8 19 1 8 -7 12 2 13 34 1 24 -2
47 -7 50 -17 11 -11 25 11 25 11 0 17 4 14 10 -6 9 17 17 60 21 28 3 75 -11
75 -22 0 -5 6 -9 14 -9 11 0 14 15 7 52 0 5 -17 26 -37 47 -34 39 -55 49 -172
80 -24 7 -45 18 -48 26 -8 20 -48 27 -164 31 -58 2 -121 9 -140 16 -63 24
-145 76 -183 118 -21 22 -42 40 -46 40 -27 0 -132 227 -162 350 -16 69 -14
136 6 166 8 13 15 31 15 39 0 22 42 94 104 180 70 96 99 122 148 136 65 17
118 40 170 73 55 35 96 112 104 197 3 30 7 68 8 84 2 17 14 47 27 67 68 104
119 189 119 197 0 6 14 33 30 61 17 28 30 55 30 60 0 6 10 10 23 11 38 1 74 6
172 25 72 14 349 96 387 115 10 5 22 9 28 9 6 0 59 23 118 51 93 44 239 99
263 99 4 0 28 -16 54 -35 25 -20 72 -45 103 -57 44 -16 74 -39 135 -100 43
-43 81 -78 85 -79 48 -6 73 -14 105 -35 22 -14 41 -23 44 -20 9 9 -15 66 -42
98 -14 16 -25 36 -25 43 0 15 -56 65 -73 65 -7 0 -30 16 -52 34 -32 27 -37 37
-28 47 10 9 18 10 37 1 14 -6 37 -8 53 -3 32 8 65 7 81 -3 6 -3 13 -2 16 3 9
14 -43 71 -64 71 -10 0 -20 5 -22 11 -2 6 -23 12 -47 15 -48 4 -69 14 -30 14
13 0 54 10 92 22 l67 22 28 -34 c49 -60 96 -105 132 -127 46 -27 190 -65 263
-69 31 -2 64 -7 73 -12 10 -5 33 -6 54 -1 104 24 183 3 193 -50 4 -17 16 -35
29 -42 24 -13 40 -32 48 -61 3 -12 9 -15 19 -9 11 7 14 30 13 93 -2 80 -3 84
-34 111 -18 15 -40 27 -50 27 -22 0 -31 15 -10 17 103 11 122 16 110 30 -6 8
-30 24 -52 35 -52 26 -137 20 -171 -12 -34 -32 -119 -41 -167 -18 -20 10 -40
22 -43 28 -7 11 -105 63 -105 56 0 -3 -17 2 -37 10 -20 9 -46 18 -57 20 -39 7
-50 29 -47 94 1 28 14 48 59 96 49 52 61 74 85 147 34 104 68 132 197 167 45
12 58 17 113 39 15 6 35 11 43 11 21 0 245 105 307 144 29 17 73 43 99 56 88
46 163 105 199 159 45 68 59 75 102 57 19 -7 54 -17 78 -21 24 -4 80 -20 124
-36 44 -15 121 -33 170 -39 122 -15 188 -38 424 -154 41 -20 84 -38 95 -41 12
-3 46 -12 76 -20 112 -33 240 10 323 108 63 75 63 75 23 94 -20 9 -36 22 -36
27 0 6 -11 23 -25 38 -14 15 -25 37 -25 50 l-1 23 -14 -25 c-14 -25 -14 -25
-15 -2 0 19 -20 34 -20 15 0 -5 -10 -19 -21 -33 -18 -23 -20 -23 -14 -4 3 12
2 29 -1 39 -6 14 -11 12 -35 -17 -30 -34 -36 -29 -19 16 11 31 6 33 -22 6 -32
-29 -50 -26 -38 6 6 14 10 51 9 82 0 48 -2 54 -12 38 -7 -10 -20 -28 -29 -40
-16 -20 -16 -20 -11 22 7 54 -7 54 -44 2 -15 -22 -31 -40 -36 -40 -4 0 -4 18
-1 40 7 45 0 50 -27 18 -19 -24 -24 -14 -13 29 6 21 10 21 127 20 109 -2 122
0 125 16 4 17 -2 21 -50 31 -15 3 -63 33 -107 66 -44 33 -97 68 -118 77 -44
19 -36 17 -91 27 l-44 8 3 102 c3 93 17 158 51 246 10 24 11 24 18 5 7 -18 8
-18 15 8 7 26 38 40 32 15 -1 -7 4 -12 11 -10 8 1 11 -1 9 -5 -2 -5 -1 -17 3
-28 7 -19 9 -18 19 8 10 26 40 38 42 17 1 -5 3 -14 4 -20 1 -5 3 -15 4 -21 2
-18 21 1 21 22 0 13 7 19 24 19 20 0 26 -8 37 -45 7 -25 17 -45 21 -45 3 0 12
16 19 35 14 38 29 46 29 16 0 -20 27 -91 35 -91 2 0 19 27 37 60 35 63 53 75
55 38 3 -43 14 -88 21 -88 10 0 32 53 39 94 7 45 21 55 40 30 12 -16 15 -17
23 -4 8 13 11 13 19 1 10 -16 31 -6 31 15 0 8 5 12 10 9 6 -3 10 -14 10 -24 0
-9 6 -26 14 -36 13 -18 15 -16 29 30 9 28 16 44 16 38 1 -22 21 -14 21 8 0 30
16 15 24 -23 9 -48 28 -21 28 41 -1 28 3 51 8 51 5 0 7 -6 4 -14 -3 -8 -1 -17
4 -20 6 -3 13 6 17 21 3 16 11 30 16 34 5 3 12 16 14 29 2 13 18 37 34 54 44
46 37 96 -28 227 -29 57 -60 112 -69 122 -29 33 -215 115 -277 123 -55 7 -90
12 -90 14 0 0 -38 2 -85 4 -47 2 -99 9 -117 15 -28 11 -38 9 -90 -15 -48 -22
-159 -44 -228 -44 -43 -1 -149 16 -227 36 -5 1 -14 2 -22 3 -8 0 -41 21 -74
45 -77 57 -108 62 -197 30z m-1721 -2585 c-13 -22 -66 -38 -86 -25 -16 9 -12
12 29 22 64 16 65 16 57 3z m941 -97 c-3 -3 -11 0 -18 7 -9 10 -8 11 6 5 10
-3 15 -9 12 -12z"/>
<path d="M1115 2330 c3 -5 8 -10 11 -10 2 0 4 5 4 10 0 6 -5 10 -11 10 -5 0
-7 -4 -4 -10z"/>
<path d="M1473 2295 c0 -8 4 -12 9 -9 5 3 6 10 3 15 -9 13 -12 11 -12 -6z"/>
<path d="M1515 2290 c3 -5 8 -10 11 -10 2 0 4 5 4 10 0 6 -5 10 -11 10 -5 0
-7 -4 -4 -10z"/>
<path d="M1606 2292 c-3 -5 1 -9 9 -9 8 0 12 4 9 9 -3 4 -7 8 -9 8 -2 0 -6 -4
-9 -8z"/>
<path d="M1656 2292 c-3 -4 4 -9 15 -9 23 -2 25 3 4 10 -8 4 -16 3 -19 -1z"/>
<path d="M1780 2290 c-9 -6 -10 -10 -3 -10 6 0 15 5 18 10 8 12 4 12 -15 0z"/>
<path d="M1960 2290 c-12 -7 -10 -9 7 -7 12 0 19 5 17 9 -6 10 -6 10 -24 -2z"/>
<path d="M2030 2290 c0 -5 5 -10 11 -10 5 0 7 5 4 10 -3 6 -8 10 -11 10 -2 0
-4 -4 -4 -10z"/>
<path d="M1741 2266 c-9 -11 -9 -16 1 -22 7 -4 10 -4 6 1 -4 4 -3 14 3 22 6 7
9 13 6 13 -2 0 -10 -6 -16 -14z"/>
<path d="M1856 2263 c-6 -14 -5 -15 5 -6 7 7 10 15 7 18 -3 3 -9 -2 -12 -12z"/>
<path d="M1910 2276 c0 -2 7 -7 16 -10 8 -3 12 -2 9 4 -6 10 -25 14 -25 6z"/>
<path d="M2080 2270 c-9 -6 -10 -10 -3 -10 6 0 15 5 18 10 8 12 4 12 -15 0z"/>
<path d="M2136 2263 c-6 -14 -5 -15 5 -6 7 7 10 15 7 18 -3 3 -9 -2 -12 -12z"/>
<path d="M2315 2271 c-6 -11 13 -26 22 -17 4 3 1 6 -6 6 -7 0 -9 5 -6 10 3 6
4 10 1 10 -3 0 -7 -4 -11 -9z"/>
<path d="M3042 2268 c-15 -15 -15 -28 -1 -28 5 0 8 4 4 9 -3 6 3 14 12 20 10
6 13 11 8 11 -6 0 -16 -5 -23 -12z"/>
<path d="M2878 2263 c7 -3 16 -2 19 1 4 3 -2 6 -13 5 -11 0 -14 -3 -6 -6z"/>
<path d="M2915 2259 c-4 -6 -5 -12 -2 -15 2 -3 7 2 10 11 7 17 1 20 -8 4z"/>
<path d="M3109 2253 c-13 -16 -12 -17 4 -4 9 7 17 15 17 17 0 8 -8 3 -21 -13z"/>
<path d="M1636 2248 c3 -4 11 -5 19 -1 21 7 19 12 -4 10 -11 0 -18 -5 -15 -9z"/>
<path d="M1696 2252 c-3 -5 1 -9 9 -9 8 0 12 4 9 9 -3 4 -7 8 -9 8 -2 0 -6 -4
-9 -8z"/>
<path d="M2160 2245 c-7 -8 -17 -12 -23 -8 -6 4 -7 1 -3 -6 6 -9 13 -8 27 5
10 9 19 19 19 21 0 7 -8 2 -20 -12z"/>
<path d="M2267 2245 c3 -8 9 -12 14 -9 12 7 11 11 -5 17 -10 4 -13 1 -9 -8z"/>
<path d="M2846 2254 c7 -3 10 -15 8 -27 -4 -21 -4 -21 5 -2 10 23 5 35 -12 34
-9 0 -9 -2 -1 -5z"/>
<path d="M2935 2251 c-3 -6 4 -15 15 -21 13 -7 20 -7 20 0 0 5 -7 10 -16 10
-8 0 -12 5 -9 10 3 6 4 10 1 10 -3 0 -7 -4 -11 -9z"/>
<path d="M3225 2250 c-3 -6 1 -7 9 -4 18 7 21 14 7 14 -6 0 -13 -4 -16 -10z"/>
<path d="M2213 2235 c0 -7 6 -11 14 -8 7 3 13 6 13 8 0 2 -6 5 -13 8 -8 3 -14
-1 -14 -8z"/>
<path d="M3129 2234 c-11 -14 -24 -52 -14 -42 2 1 3 6 2 9 -1 4 7 16 17 28 11
12 17 21 14 21 -3 0 -12 -7 -19 -16z"/>
<path d="M2250 2231 c0 -6 4 -13 10 -16 6 -3 7 1 4 9 -7 18 -14 21 -14 7z"/>
<path d="M2330 2236 c0 -2 7 -7 16 -10 8 -3 12 -2 9 4 -6 10 -25 14 -25 6z"/>
<path d="M2373 2225 c0 -7 6 -11 14 -8 7 3 13 6 13 8 0 2 -6 5 -13 8 -8 3 -14
-1 -14 -8z"/>
<path d="M2580 2232 c0 -5 11 -14 25 -20 14 -6 25 -10 25 -8 0 2 -11 11 -25
20 -14 9 -25 13 -25 8z"/>
<path d="M2630 2231 c0 -5 7 -15 17 -22 15 -13 15 -12 4 9 -12 23 -21 28 -21
13z"/>
<path d="M3006 2231 c-3 -5 1 -11 9 -14 9 -4 12 -1 8 9 -6 16 -10 17 -17 5z"/>
<path d="M3054 2228 c-4 -5 -3 -12 0 -15 3 -4 6 -1 6 6 0 7 4 10 9 6 5 -3 12
-2 15 3 3 5 -2 9 -10 9 -8 0 -17 -4 -20 -9z"/>
<path d="M3157 2222 c-15 -16 -15 -19 -2 -19 8 0 13 3 10 5 -3 3 0 11 6 19 17
20 5 16 -14 -5z"/>
<path d="M3240 2236 c0 -2 8 -10 18 -17 15 -13 16 -12 3 4 -13 16 -21 21 -21
13z"/>
<path d="M2788 2223 c7 -3 16 -2 19 1 4 3 -2 6 -13 5 -11 0 -14 -3 -6 -6z"/>
<path d="M2873 2217 c0 -8 6 -14 13 -14 7 0 10 6 7 14 -3 7 -8 13 -12 13 -4 0
-8 -6 -8 -13z"/>
<path d="M2170 2209 c0 -5 5 -7 10 -4 6 3 10 8 10 11 0 2 -4 4 -10 4 -5 0 -10
-5 -10 -11z"/>
<path d="M3080 2205 c-7 -8 -16 -13 -19 -10 -4 2 -8 -2 -8 -10 0 -10 4 -12 12
-5 7 5 15 8 18 5 4 -3 5 -2 2 2 -3 3 0 12 6 20 6 7 9 13 6 13 -2 0 -10 -7 -17
-15z"/>
<path d="M3185 2210 c-3 -6 1 -7 9 -4 18 7 21 14 7 14 -6 0 -13 -4 -16 -10z"/>
<path d="M3220 2216 c0 -2 8 -10 18 -17 15 -13 16 -12 3 4 -13 16 -21 21 -21
13z"/>
<path d="M2296 2197 c3 -10 9 -15 12 -12 3 3 0 11 -7 18 -10 9 -11 8 -5 -6z"/>
<path d="M2433 2185 c0 -8 4 -12 9 -9 4 3 8 9 8 15 0 5 -4 9 -8 9 -5 0 -9 -7
-9 -15z"/>
<path d="M2670 2192 c0 -5 7 -9 15 -9 8 0 12 4 9 9 -3 4 -9 8 -15 8 -5 0 -9
-4 -9 -8z"/>
<path d="M2850 2191 c0 -6 4 -13 10 -16 6 -3 7 1 4 9 -7 18 -14 21 -14 7z"/>
<path d="M3200 2196 c0 -2 8 -10 18 -17 15 -13 16 -12 3 4 -13 16 -21 21 -21
13z"/>
<path d="M3256 2183 c-6 -14 -5 -15 5 -6 7 7 10 15 7 18 -3 3 -9 -2 -12 -12z"/>
<path d="M2559 2188 c-5 -19 -8 -50 -4 -46 7 7 15 48 9 48 -2 0 -4 -1 -5 -2z"/>
<path d="M2913 2157 c-1 -11 -1 -18 0 -16 2 2 8 11 15 20 9 12 9 16 -1 16 -7
0 -14 -9 -14 -20z"/>
<path d="M3105 2170 c-3 -6 1 -7 9 -4 18 7 21 14 7 14 -6 0 -13 -4 -16 -10z"/>
<path d="M3075 2160 c-4 -6 -10 -8 -14 -6 -4 3 -8 -1 -8 -9 0 -13 4 -12 19 2
18 16 22 23 14 23 -3 0 -8 -5 -11 -10z"/>
<path d="M3169 2153 c-13 -16 -12 -17 4 -4 16 13 21 21 13 21 -2 0 -10 -8 -17
-17z"/>
<path d="M4695 2159 c-4 -6 -5 -12 -2 -15 2 -3 7 2 10 11 7 17 1 20 -8 4z"/>
<path d="M2510 2149 c0 -5 5 -7 10 -4 6 3 10 8 10 11 0 2 -4 4 -10 4 -5 0 -10
-5 -10 -11z"/>
<path d="M2600 2145 c-7 -9 -11 -17 -9 -20 3 -2 10 5 17 15 14 24 10 26 -8 5z"/>
<path d="M2846 2148 c3 -5 10 -6 15 -3 13 9 11 12 -6 12 -8 0 -12 -4 -9 -9z"/>
<path d="M2945 2150 c-3 -6 1 -7 9 -4 18 7 21 14 7 14 -6 0 -13 -4 -16 -10z"/>
<path d="M3120 2156 c0 -2 8 -10 18 -17 15 -13 16 -12 3 4 -13 16 -21 21 -21
13z"/>
<path d="M5116 2148 c3 -5 10 -6 15 -3 13 9 11 12 -6 12 -8 0 -12 -4 -9 -9z"/>
<path d="M3190 2136 c0 -2 7 -7 16 -10 8 -3 12 -2 9 4 -6 10 -25 14 -25 6z"/>
<path d="M4576 2132 c-2 -4 -1 -14 4 -22 7 -11 9 -9 7 8 -1 24 -3 26 -11 14z"/>
<path d="M4673 2125 c0 -8 4 -12 9 -9 5 3 6 10 3 15 -9 13 -12 11 -12 -6z"/>
<path d="M4730 2130 c0 -5 5 -10 11 -10 5 0 7 5 4 10 -3 6 -8 10 -11 10 -2 0
-4 -4 -4 -10z"/>
<path d="M4890 2130 c0 -5 5 -10 11 -10 5 0 7 5 4 10 -3 6 -8 10 -11 10 -2 0
-4 -4 -4 -10z"/>
<path d="M5160 2130 c-12 -7 -10 -9 7 -7 12 0 19 5 17 9 -6 10 -6 10 -24 -2z"/>
<path d="M4383 2114 c0 -16 13 -19 21 -5 3 5 0 11 -7 14 -8 3 -14 -1 -14 -9z"/>
<path d="M4645 2110 c10 -11 20 -20 23 -20 3 0 -3 9 -13 20 -10 11 -20 20 -23
20 -3 0 3 -9 13 -20z"/>
<path d="M3077 2098 c19 -21 31 -25 14 -5 -6 8 -9 16 -6 19 3 2 -2 5 -10 5
-13 0 -13 -3 2 -19z"/>
<path d="M3175 2109 c-4 -6 -4 -13 -1 -16 3 -4 6 -1 6 6 0 7 5 9 12 5 7 -4 8
-3 4 4 -9 15 -13 15 -21 1z"/>
<path d="M3230 2110 c0 -5 5 -10 10 -10 6 0 10 5 10 10 0 6 -4 10 -10 10 -5 0
-10 -4 -10 -10z"/>
<path d="M4454 2112 c4 -3 14 -7 22 -8 9 -1 13 0 10 4 -4 3 -14 7 -22 8 -9 1
-13 0 -10 -4z"/>
<path d="M4856 2112 c-3 -5 1 -9 9 -9 8 0 12 4 9 9 -3 4 -7 8 -9 8 -2 0 -6 -4
-9 -8z"/>
<path d="M4356 2097 c3 -10 9 -15 12 -12 3 3 0 11 -7 18 -10 9 -11 8 -5 -6z"/>
<path d="M4415 2100 c-3 -6 1 -13 9 -16 9 -3 14 -10 11 -14 -3 -5 -2 -11 3
-14 4 -2 8 6 8 19 0 16 -4 21 -15 17 -9 -3 -12 -1 -7 6 4 7 5 12 2 12 -3 0 -8
-5 -11 -10z"/>
<path d="M4549 2093 c-13 -16 -12 -17 4 -4 16 13 21 21 13 21 -2 0 -10 -8 -17
-17z"/>
<path d="M3201 2086 c-9 -10 -8 -15 3 -19 9 -4 18 -1 22 5 5 7 2 8 -6 3 -10
-6 -12 -4 -7 8 8 21 3 22 -12 3z"/>
<path d="M3267 2082 c3 -7 9 -10 12 -5 3 4 10 11 15 15 4 4 -1 6 -12 5 -12 -1
-18 -6 -15 -15z"/>
<path d="M4633 2084 c16 -20 52 -30 41 -12 -4 5 -9 7 -12 4 -3 -3 -15 2 -26
11 -21 18 -21 18 -3 -3z"/>
<path d="M4833 2093 c4 -3 1 -13 -6 -22 -11 -14 -10 -14 5 -2 16 12 16 31 1
31 -4 0 -3 -3 0 -7z"/>
<path d="M5295 2090 c3 -5 8 -10 11 -10 2 0 4 5 4 10 0 6 -5 10 -11 10 -5 0
-7 -4 -4 -10z"/>
<path d="M5414 2092 c4 -3 14 -7 22 -8 9 -1 13 0 10 4 -4 3 -14 7 -22 8 -9 1
-13 0 -10 -4z"/>
<path d="M5475 2091 c-3 -5 -2 -12 3 -15 5 -3 9 1 9 9 0 17 -3 19 -12 6z"/>
<path d="M3030 2086 c0 -2 8 -10 18 -17 15 -13 16 -12 3 4 -13 16 -21 21 -21
13z"/>
<path d="M3126 2071 c-14 -15 -15 -21 -4 -27 7 -4 10 -3 5 1 -4 5 0 17 10 27
9 10 14 18 11 18 -3 0 -13 -9 -22 -19z"/>
<path d="M4461 2074 c0 -11 3 -14 6 -6 3 7 2 16 -1 19 -3 4 -6 -2 -5 -13z"/>
<path d="M4573 2078 c-15 -20 -25 -38 -20 -38 3 0 12 11 21 25 17 26 16 35 -1
13z"/>
<path d="M2987 2069 c7 -7 15 -10 18 -7 3 3 -2 9 -12 12 -14 6 -15 5 -6 -5z"/>
<path d="M3170 2071 c0 -6 4 -13 10 -16 6 -3 7 1 4 9 -7 18 -14 21 -14 7z"/>
<path d="M3240 2065 c-7 -9 -11 -17 -9 -20 3 -2 10 5 17 15 14 24 10 26 -8 5z"/>
<path d="M3297 2063 c5 -12 3 -14 -7 -8 -9 5 -11 4 -6 -4 4 -6 12 -9 17 -6 12
8 12 35 -1 35 -5 0 -6 -7 -3 -17z"/>
<path d="M4375 2070 c-3 -5 -3 -10 2 -10 4 0 1 -5 -7 -11 -10 -7 -11 -9 -2 -7
8 2 13 8 12 13 -1 5 7 12 17 16 16 7 16 8 1 8 -9 1 -20 -3 -23 -9z"/>
<path d="M4500 2068 c0 -4 7 -8 15 -8 8 0 15 4 15 8 0 5 -7 9 -15 9 -8 0 -15
-4 -15 -9z"/>
<path d="M4593 2062 c-8 -14 -8 -19 1 -19 7 0 13 9 13 19 1 10 1 18 0 18 -1 0
-7 -8 -14 -18z"/>
<path d="M4746 2068 c3 -5 10 -6 15 -3 13 9 11 12 -6 12 -8 0 -12 -4 -9 -9z"/>
<path d="M5375 2070 c-3 -5 -1 -10 4 -10 6 0 11 5 11 10 0 6 -2 10 -4 10 -3 0
-8 -4 -11 -10z"/>
<path d="M4715 2061 c-3 -5 -2 -12 3 -15 5 -3 9 1 9 9 0 17 -3 19 -12 6z"/>
<path d="M3256 2051 c-3 -5 1 -14 8 -21 8 -6 13 -20 11 -31 -2 -11 0 -17 5
-14 11 7 3 49 -10 53 -6 2 -8 8 -4 13 3 5 3 9 0 9 -3 0 -7 -4 -10 -9z"/>
<path d="M3729 2046 c-15 -10 -15 -14 -2 -31 15 -19 15 -19 9 -1 -4 11 -1 23
6 27 7 4 10 10 8 13 -3 2 -12 -1 -21 -8z"/>
<path d="M4410 2053 c5 -2 8 -9 5 -13 -3 -5 -1 -11 4 -14 5 -4 8 2 7 11 -2 9
-8 18 -15 19 -6 1 -7 0 -1 -3z"/>
<path d="M4786 2048 c3 -5 10 -6 15 -3 13 9 11 12 -6 12 -8 0 -12 -4 -9 -9z"/>
<path d="M5013 2045 c0 -8 4 -12 9 -9 5 3 6 10 3 15 -9 13 -12 11 -12 -6z"/>
<path d="M3806 2033 c-4 -9 -2 -21 4 -27 8 -8 9 -6 4 8 -5 13 -4 17 4 12 8 -5
10 -2 6 8 -8 20 -10 20 -18 -1z"/>
<path d="M4246 2035 c-3 -8 -1 -15 4 -15 6 0 10 7 10 15 0 8 -2 15 -4 15 -2 0
-6 -7 -10 -15z"/>
<path d="M4460 2041 c0 -7 -5 -9 -12 -5 -7 5 -8 3 -3 -5 5 -9 10 -10 18 -2 6
6 8 14 4 18 -4 3 -7 1 -7 -6z"/>
<path d="M3145 2032 c3 -3 19 -7 36 -8 17 -2 28 0 25 3 -3 3 -19 7 -36 8 -17
1 -28 0 -25 -3z"/>
<path d="M3305 2030 c-3 -5 -2 -10 4 -10 5 0 13 5 16 10 3 6 2 10 -4 10 -5 0
-13 -4 -16 -10z"/>
<path d="M3756 2031 c-6 -10 24 -25 32 -16 3 3 0 5 -7 5 -7 0 -9 5 -6 10 3 6
2 10 -4 10 -5 0 -12 -4 -15 -9z"/>
<path d="M3860 2030 c-8 -5 -10 -10 -5 -10 6 0 17 5 25 10 8 5 11 10 5 10 -5
0 -17 -5 -25 -10z"/>
<path d="M3915 2020 c21 -24 26 -25 19 -6 -3 8 -13 17 -22 21 -13 5 -13 2 3
-15z"/>
<path d="M4273 2023 c0 -9 4 -10 14 -2 7 6 13 12 13 14 0 1 -6 2 -13 2 -8 0
-14 -6 -14 -14z"/>
<path d="M4953 2025 c0 -8 4 -12 9 -9 4 3 8 9 8 15 0 5 -4 9 -8 9 -5 0 -9 -7
-9 -15z"/>
<path d="M3350 2019 c0 -5 -5 -7 -12 -3 -7 4 -8 3 -4 -4 4 -6 13 -9 21 -6 8 4
12 10 9 15 -7 12 -14 11 -14 -2z"/>
<path d="M3870 1998 c-10 -22 -10 -22 4 -4 8 10 20 15 27 10 8 -4 10 -3 5 4
-11 18 -24 14 -36 -10z"/>
<path d="M4386 2008 c3 -5 10 -6 15 -3 13 9 11 12 -6 12 -8 0 -12 -4 -9 -9z"/>
<path d="M3994 1996 c1 -8 5 -18 8 -22 4 -3 5 1 4 10 -1 8 -5 18 -8 22 -4 3
-5 -1 -4 -10z"/>
<path d="M3375 1990 c3 -5 8 -10 11 -10 2 0 4 5 4 10 0 6 -5 10 -11 10 -5 0
-7 -4 -4 -10z"/>
<path d="M4430 1989 c0 -5 5 -7 10 -4 6 3 10 8 10 11 0 2 -4 4 -10 4 -5 0 -10
-5 -10 -11z"/>
</g>
</svg>
